<?xml version="1.0" encoding="UTF-8"?>
<svg width="101px" height="14px" viewBox="0 0 101 14" version="1.1" xmlns="http://www.w3.org/2000/svg" xmlns:xlink="http://www.w3.org/1999/xlink">
    <!-- Generator: Sketch 48.1 (47250) - http://www.bohemiancoding.com/sketch -->
    <title>Path 2</title>
    <desc>Created with Sketch.</desc>
    <defs></defs>
    <g id="Page-1" stroke="none" stroke-width="1" fill="none" fill-rule="evenodd" stroke-linejoin="bevel">
        <polyline id="Path-2" stroke="#F7F7F7" points="0.10651733 8.88373401 2.78214187 6.24676868 5.07219162 11.8910139 5.07219162 3.19065609 8.40960086 8.88373401 10.2667691 5.43390785 13.0466718 10.9311463 13.9612674 6.24676868 16.2309702 11.8910139 18.8847218 7.540835 23.3752947 9.59129936 24.6683437 6.86582478 29.3181315 13.0935189 31.1722477 3.19065609 33.6901834 10.3792352 34.2136088 6.86582478 36.5306182 9.59129936 38.7906562 6.86582478 42.4312351 9.59129936 45.7798351 6.86582478 47.7794321 9.59129936 49.5231661 6.86582478 52.0324543 10.9311463 53.2359767 8.88373401 54.7121482 6.24676868 55.774768 8.88373401 56.4767379 3.95112352 56.4767379 11.8910139 58.9956909 3.19065609 59.9647146 8.88373401 61.921583 3.95112352 62.6489866 7.540835 64.9527705 6.24676868 64.4237497 8.88373401 67.5780364 2.46121777 67.5780364 10.3792352 69.0486125 5.43390785 71.4281889 10.3792352 71.4281889 6.86582478 73.8311642 7.77736835 73.8311642 3.95112352 76.1456303 9.59129936 76.1456303 6.24676868 80.3986525 8.88373401 82.0274262 3.95112352 84.9848561 6.86582478 85.9147119 5.43390785 86.911204 8.88373401 87.4982137 3.19065609 89.3747115 9.59129936 90.3961287 3.19065609 91.0813124 6.24676868 94.0143259 3.95112352 95.9696682 13.0935189 95.9696682 0.151329739 96.7489566 6.86582478 100.037533 3.95112352 100.037533 7.77736835"></polyline>
    </g>
</svg>